<svg width="116" height="116" viewBox="0 0 116 116" fill="none" xmlns="http://www.w3.org/2000/svg">
<g filter="url(#filter0_d_9_3113)">
<rect x="4" width="108" height="108" rx="16" fill="#1F2022"/>
<g clip-path="url(#clip0_9_3113)">
<path d="M55.3633 50.25H47.5117C47.2786 50.25 47.0551 50.3426 46.8902 50.5074C46.7254 50.6723 46.6328 50.8958 46.6328 51.1289V58.9805C46.6328 59.2136 46.7254 59.4371 46.8902 59.602C47.0551 59.7668 47.2786 59.8594 47.5117 59.8594H55.3633C55.5964 59.8594 55.8199 59.7668 55.9848 59.602C56.1496 59.4371 56.2422 59.2136 56.2422 58.9805V51.1289C56.2422 50.8958 56.1496 50.6723 55.9848 50.5074C55.8199 50.3426 55.5964 50.25 55.3633 50.25ZM54.4844 58.1016H48.3906V52.0078H54.4844V58.1016ZM83.6055 42.8672H74.6406V38.9414C74.6393 37.7763 74.1759 36.6593 73.3521 35.8354C72.5282 35.0116 71.4112 34.5482 70.2461 34.5469H69.3672V28.3945C69.3659 27.2294 68.9025 26.1124 68.0786 25.2886C67.2548 24.4647 66.1378 24.0013 64.9727 24H51.0273C49.8622 24.0013 48.7452 24.4647 47.9214 25.2886C47.0975 26.1124 46.6341 27.2294 46.6328 28.3945V34.5469H45.7539C44.5888 34.5482 43.4718 35.0116 42.6479 35.8354C41.8241 36.6593 41.3607 37.7763 41.3594 38.9414V42.8672H32.3945C31.2294 42.8685 30.1124 43.3319 29.2886 44.1558C28.4647 44.9796 28.0013 46.0966 28 47.2617V83.1211C28 83.3542 28.0926 83.5777 28.2574 83.7426C28.4223 83.9074 28.6458 84 28.8789 84H87.1211C87.3542 84 87.5777 83.9074 87.7426 83.7426C87.9074 83.5777 88 83.3542 88 83.1211V47.2617C87.9987 46.0966 87.5353 44.9796 86.7114 44.1558C85.8876 43.3319 84.7706 42.8685 83.6055 42.8672ZM41.3594 72.1641H35.2656V66.0703H41.3594V72.1641ZM41.3594 58.1016H35.2656V52.0078H41.3594V58.1016ZM41.3594 50.25H34.3867C34.1536 50.25 33.9301 50.3426 33.7652 50.5074C33.6004 50.6723 33.5078 50.8958 33.5078 51.1289V58.9805C33.5078 59.2136 33.6004 59.4371 33.7652 59.602C33.9301 59.7668 34.1536 59.8594 34.3867 59.8594H41.3594V64.3125H34.3867C34.1536 64.3125 33.9301 64.4051 33.7652 64.5699C33.6004 64.7348 33.5078 64.9583 33.5078 65.1914V73.043C33.5078 73.2761 33.6004 73.4996 33.7652 73.6645C33.9301 73.8293 34.1536 73.9219 34.3867 73.9219H41.3594V82.2422H29.7578V47.2617C29.7586 46.5627 30.0366 45.8924 30.5309 45.3981C31.0253 44.9038 31.6955 44.6258 32.3945 44.625H41.3594V50.25ZM48.3906 28.3945C48.3914 27.6955 48.6694 27.0253 49.1638 26.5309C49.6581 26.0366 50.3283 25.7586 51.0273 25.7578H64.9727C65.6717 25.7586 66.3419 26.0367 66.8362 26.531C67.3305 27.0253 67.6086 27.6955 67.6094 28.3945V42.3398C67.6086 43.0389 67.3305 43.7091 66.8362 44.2034C66.3419 44.6977 65.6717 44.9758 64.9727 44.9766H51.0273C50.3283 44.9758 49.6581 44.6977 49.1638 44.2034C48.6694 43.7091 48.3914 43.0389 48.3906 42.3398V28.3945ZM62.6289 82.2422H53.3711V67.7695C53.3719 67.0705 53.6499 66.4003 54.1442 65.9059C54.6385 65.4116 55.3088 65.1336 56.0078 65.1328H59.9922C60.6912 65.1336 61.3614 65.4117 61.8557 65.906C62.35 66.4003 62.6281 67.0705 62.6289 67.7695V82.2422ZM72.8828 82.2422H64.3867V67.7695C64.3854 66.6044 63.922 65.4874 63.0981 64.6636C62.2743 63.8397 61.1573 63.3763 59.9922 63.375H56.0078C54.8427 63.3763 53.7257 63.8397 52.9018 64.6636C52.078 65.4874 51.6146 66.6044 51.6133 67.7695V82.2422H43.1172V38.9414C43.118 38.2423 43.396 37.5721 43.8903 37.0778C44.3846 36.5835 45.0548 36.3055 45.7539 36.3047H46.6328V42.3398C46.6341 43.5049 47.0975 44.622 47.9214 45.4458C48.7452 46.2697 49.8622 46.7331 51.0273 46.7344H64.9727C66.1378 46.7331 67.2548 46.2697 68.0786 45.4458C68.9025 44.622 69.3659 43.5049 69.3672 42.3398V36.3047H70.2461C70.9451 36.3055 71.6153 36.5835 72.1096 37.0779C72.604 37.5722 72.882 38.2424 72.8828 38.9414V82.2422ZM74.6406 52.0078H80.7344V58.1016H74.6406V52.0078ZM74.6406 66.0703H80.7344V72.1641H74.6406V66.0703ZM86.2422 82.2422H74.6406V73.9219H81.6133C81.8464 73.9219 82.0699 73.8293 82.2348 73.6645C82.3996 73.4996 82.4922 73.2761 82.4922 73.043V65.1914C82.4922 64.9583 82.3996 64.7348 82.2348 64.5699C82.0699 64.4051 81.8464 64.3125 81.6133 64.3125H74.6406V59.8594H81.6133C81.8464 59.8594 82.0699 59.7668 82.2348 59.602C82.3996 59.4371 82.4922 59.2136 82.4922 58.9805V51.1289C82.4922 50.8958 82.3996 50.6723 82.2348 50.5074C82.0699 50.3426 81.8464 50.25 81.6133 50.25H74.6406V44.625H83.6055C84.3045 44.6258 84.9747 44.9039 85.469 45.3982C85.9633 45.8925 86.2414 46.5627 86.2422 47.2617V82.2422ZM50.7598 40.6671H65.2401C65.4732 40.6671 65.6967 40.5745 65.8616 40.4097C66.0264 40.2449 66.119 40.0213 66.119 39.7882C66.119 39.5551 66.0264 39.3315 65.8616 39.1667C65.6967 39.0019 65.4732 38.9093 65.2401 38.9093H64.7787C64.6212 37.7219 64.1525 36.5973 63.4201 35.6496C62.6878 34.7018 61.7178 33.9645 60.6086 33.5126V32.6977C60.6086 32.0001 60.3315 31.331 59.8382 30.8378C59.3449 30.3445 58.6759 30.0674 57.9783 30.0674C57.2807 30.0674 56.6117 30.3445 56.1184 30.8378C55.6252 31.331 55.348 32.0001 55.348 32.6977V33.5128C54.239 33.9648 53.2691 34.7021 52.5369 35.6498C51.8046 36.5975 51.336 37.722 51.1785 38.9093H50.7598C50.5267 38.9093 50.3032 39.0019 50.1383 39.1667C49.9735 39.3315 49.8809 39.5551 49.8809 39.7882C49.8809 40.0213 49.9735 40.2449 50.1383 40.4097C50.3032 40.5745 50.5267 40.6671 50.7598 40.6671ZM57.1059 32.6977C57.1061 32.4662 57.1982 32.2443 57.3618 32.0806C57.5255 31.9169 57.7474 31.8249 57.9789 31.8246C58.2102 31.825 58.4319 31.9172 58.5954 32.0809C58.7588 32.2445 58.8507 32.4664 58.8508 32.6977V33.0619C58.5897 33.0309 58.327 33.0152 58.0641 33.0146H57.8932C57.6301 33.0152 57.3672 33.031 57.1059 33.062V32.6977ZM57.8932 34.7725H58.0641C59.2415 34.774 60.381 35.189 61.2836 35.9451C62.1863 36.7012 62.7947 37.7503 63.0026 38.9092H52.9546C53.1626 37.7502 53.771 36.7012 54.6736 35.9451C55.5763 35.189 56.7158 34.774 57.8932 34.7725ZM68.4883 50.25H60.6367C60.4036 50.25 60.1801 50.3426 60.0152 50.5074C59.8504 50.6723 59.7578 50.8958 59.7578 51.1289V58.9805C59.7578 59.2136 59.8504 59.4371 60.0152 59.602C60.1801 59.7668 60.4036 59.8594 60.6367 59.8594H68.4883C68.7214 59.8594 68.9449 59.7668 69.1098 59.602C69.2746 59.4371 69.3672 59.2136 69.3672 58.9805V51.1289C69.3672 50.8958 69.2746 50.6723 69.1098 50.5074C68.9449 50.3426 68.7214 50.25 68.4883 50.25ZM67.6094 58.1016H61.5156V52.0078H67.6094V58.1016Z" fill="#E2E5EC"/>
</g>
</g>
<defs>
<filter id="filter0_d_9_3113" x="0" y="0" width="116" height="116" filterUnits="userSpaceOnUse" color-interpolation-filters="sRGB">
<feFlood flood-opacity="0" result="BackgroundImageFix"/>
<feColorMatrix in="SourceAlpha" type="matrix" values="0 0 0 0 0 0 0 0 0 0 0 0 0 0 0 0 0 0 127 0" result="hardAlpha"/>
<feOffset dy="4"/>
<feGaussianBlur stdDeviation="2"/>
<feComposite in2="hardAlpha" operator="out"/>
<feColorMatrix type="matrix" values="0 0 0 0 0 0 0 0 0 0 0 0 0 0 0 0 0 0 0.25 0"/>
<feBlend mode="normal" in2="BackgroundImageFix" result="effect1_dropShadow_9_3113"/>
<feBlend mode="normal" in="SourceGraphic" in2="effect1_dropShadow_9_3113" result="shape"/>
</filter>
<clipPath id="clip0_9_3113">
<rect width="60" height="60" fill="white" transform="translate(28 24)"/>
</clipPath>
</defs>
</svg>
