<svg width="32" height="34" viewBox="0 0 32 34" fill="none" xmlns="http://www.w3.org/2000/svg">
<g filter="url(#filter0_d_9_3042)">
<path fill-rule="evenodd" clip-rule="evenodd" d="M4.33356 14C4.33356 7.55749 9.55642 2.33334 16.0002 2.33334C22.4428 2.33334 27.6669 7.55743 27.6669 14C27.6669 20.4426 22.4428 25.6667 16.0002 25.6667C9.55642 25.6667 4.33356 20.4425 4.33356 14ZM16.0002 4.08334C10.523 4.08334 6.08356 8.52386 6.08356 14C6.08356 19.4762 10.523 23.9167 16.0002 23.9167C21.4763 23.9167 25.9169 19.4761 25.9169 14C25.9169 8.52393 21.4763 4.08334 16.0002 4.08334Z" fill="#515151"/>
</g>
<path fill-rule="evenodd" clip-rule="evenodd" d="M11.3331 11.6938C11.6756 11.3528 12.2296 11.354 12.5706 11.6964L15.7933 14.9331C15.9073 15.0476 16.0927 15.0476 16.2067 14.9331L19.4295 11.6964C19.7704 11.354 20.3244 11.3528 20.6669 11.6938C21.0093 12.0347 21.0105 12.5888 20.6696 12.9312L17.4468 16.1679C16.6488 16.9694 15.3512 16.9694 14.5532 16.1679L11.3305 12.9312C10.9895 12.5888 10.9907 12.0347 11.3331 11.6938Z" fill="#515151"/>
<defs>
<filter id="filter0_d_9_3042" x="0.333565" y="2.33334" width="31.3333" height="31.3333" filterUnits="userSpaceOnUse" color-interpolation-filters="sRGB">
<feFlood flood-opacity="0" result="BackgroundImageFix"/>
<feColorMatrix in="SourceAlpha" type="matrix" values="0 0 0 0 0 0 0 0 0 0 0 0 0 0 0 0 0 0 127 0" result="hardAlpha"/>
<feOffset dy="4"/>
<feGaussianBlur stdDeviation="2"/>
<feComposite in2="hardAlpha" operator="out"/>
<feColorMatrix type="matrix" values="0 0 0 0 0 0 0 0 0 0 0 0 0 0 0 0 0 0 0.25 0"/>
<feBlend mode="normal" in2="BackgroundImageFix" result="effect1_dropShadow_9_3042"/>
<feBlend mode="normal" in="SourceGraphic" in2="effect1_dropShadow_9_3042" result="shape"/>
</filter>
</defs>
</svg>
