<svg width="46" height="44" viewBox="0 0 46 44" fill="none" xmlns="http://www.w3.org/2000/svg">
<path fill-rule="evenodd" clip-rule="evenodd" d="M29.5531 43.9053C29.5528 43.906 29.5527 43.9068 29.5528 43.9076V43.9076C29.5529 43.9087 29.5526 43.9099 29.5518 43.9107C29.551 43.9114 29.5499 43.9121 29.5489 43.9115L28.6073 43.3036C22.4835 39.3471 16.9612 34.5401 12.2085 29.0288C7.07496 23.1174 2.95975 16.4039 0.0291712 9.15972C-0.048072 8.97555 0.0333062 8.76125 0.211638 8.67135L0.505854 8.52302C6.95153 5.21954 13.8356 2.83945 20.953 1.45361C28.6139 -0.0621392 36.4708 -0.317554 44.2103 0.695151C44.8385 0.777348 45.2913 1.33108 45.2525 1.96343C44.8745 9.03389 43.5049 16.0173 41.1836 22.7117C38.5549 30.3838 34.6215 37.5514 29.5544 43.9028C29.5539 43.9034 29.5535 43.9041 29.5533 43.9048L29.5531 43.9053ZM33.3381 38.6003C33.3376 38.6008 33.3371 38.6012 33.3364 38.6014V38.6014C33.3356 38.6017 33.3347 38.6017 33.3338 38.6013L32.4482 38.2599C26.6771 36.0455 21.2553 33.0208 16.3482 29.2781C11.0557 25.2759 6.46565 20.4319 2.76383 14.9421C2.66743 14.8017 2.69552 14.6101 2.8289 14.5041C2.90153 14.4464 2.9747 14.389 3.04892 14.3326C7.80461 10.4807 13.0853 7.3172 18.7339 4.9362C24.807 2.34345 31.2654 0.759302 37.8509 0.244907C38.3927 0.202593 38.8744 0.584813 38.9507 1.1228C39.8818 7.04754 39.9755 13.0724 39.2289 19.0229C38.4057 25.8344 36.4137 32.4554 33.3394 38.5985C33.3392 38.599 33.3388 38.5995 33.3385 38.5999L33.3381 38.6003Z" fill="white"/>
<path fill-rule="evenodd" clip-rule="evenodd" d="M17.0871 8.41426H24.2739C26.2422 8.89688 27.4282 9.92558 27.9528 11.1129C28.229 11.7482 28.3358 12.4435 28.263 13.1317C28.1852 13.8476 27.9391 14.5353 27.5445 15.1393C26.6847 16.4602 25.0927 17.4595 22.9282 17.4957C21.6647 17.2691 21.0283 18.6173 22.098 19.646L29.3007 26.2849H17.0871C16.9101 26.2843 16.7404 26.2142 16.6153 26.0898C16.4901 25.9654 16.4195 25.7969 16.4189 25.621V9.08042C16.4189 8.90413 16.4892 8.73504 16.6145 8.61017C16.7397 8.48531 16.9097 8.41486 17.0871 8.41426ZM29.1319 8.41426H34.1496C34.3259 8.41545 34.4946 8.48554 34.6192 8.60936C34.7439 8.73318 34.8144 8.90078 34.8156 9.07589V25.6165C34.815 25.792 34.7447 25.9602 34.62 26.0845C34.4953 26.2088 34.3263 26.2792 34.1496 26.2804H32.9796L25.656 19.5305C27.2991 18.9936 28.7076 17.9141 29.6474 16.4716C30.254 15.5377 30.6306 14.4751 30.7467 13.3696C30.8416 12.477 30.7474 11.5746 30.47 10.7204C30.1927 9.86614 29.7385 9.07904 29.1365 8.40973L29.1319 8.41426Z" fill="white"/>
<path d="M17.0871 8.41426H24.2739C26.2422 8.89688 27.4282 9.92558 27.9528 11.1129C28.229 11.7482 28.3358 12.4435 28.263 13.1317C28.1852 13.8476 27.9391 14.5353 27.5445 15.1393C26.6847 16.4602 25.0927 17.4595 22.9282 17.4957C21.6647 17.2691 21.0283 18.6173 22.098 19.646L29.3007 26.2849H17.0871C16.9101 26.2843 16.7404 26.2142 16.6153 26.0898C16.4901 25.9654 16.4195 25.7969 16.4189 25.621V9.08042C16.4189 8.90413 16.4892 8.73504 16.6145 8.61017C16.7397 8.48531 16.9097 8.41486 17.0871 8.41426ZM29.1319 8.41426H34.1496C34.3259 8.41545 34.4946 8.48554 34.6192 8.60936C34.7439 8.73318 34.8144 8.90078 34.8156 9.07589V25.6165C34.815 25.792 34.7447 25.9602 34.62 26.0845C34.4953 26.2088 34.3263 26.2792 34.1496 26.2804H32.9796L25.656 19.5305C27.2991 18.9936 28.7076 17.9141 29.6474 16.4716C30.254 15.5377 30.6306 14.4751 30.7467 13.3696C30.8416 12.477 30.7474 11.5746 30.47 10.7204C30.1927 9.86614 29.7385 9.07904 29.1365 8.40973L29.1319 8.41426Z" fill="#2475EE"/>
</svg>
